<svg xmlns="http://www.w3.org/2000/svg" xmlns:xlink="http://www.w3.org/1999/xlink" width="2048" zoomAndPan="magnify" viewBox="0 0 1536 1535.999932" height="2048" preserveAspectRatio="xMidYMid meet" version="1.0"><rect x="-153.6" width="1843.2" fill="#ffffff" y="-153.599993" height="1843.199919" fill-opacity="1"/><rect x="-153.6" width="1843.2" fill="#000000" y="-153.599993" height="1843.199919" fill-opacity="1"/><path fill="#6366f1" d="M 1233.75 332.070312 C 1218.882812 333.191406 1204.226562 340.183594 1195.972656 350.089844 C 1192.71875 353.996094 1185.089844 365.503906 1176.976562 378.75 C 1174.070312 383.492188 1168.058594 393.113281 1163.613281 400.125 C 1159.171875 407.136719 1152.171875 418.273438 1148.0625 424.875 C 1138.652344 439.988281 1135.757812 444.507812 1124.625 461.476562 C 1119.675781 469.019531 1113.640625 478.382812 1111.21875 482.285156 C 1108.796875 486.183594 1105.363281 491.570312 1103.59375 494.25 C 1101.824219 496.929688 1097.8125 503.175781 1094.679688 508.125 C 1084.734375 523.835938 1079.882812 531.378906 1069.480469 547.324219 C 1063.902344 555.878906 1057.488281 565.832031 1055.230469 569.445312 C 1049.734375 578.238281 1039.253906 594.773438 1034.625 601.949219 C 1018.605469 626.796875 1015.503906 635.074219 1016.476562 650.328125 C 1017.582031 667.636719 1027.230469 682.605469 1044.75 694.1875 C 1052.859375 699.546875 1061.6875 701.609375 1074.296875 701.085938 C 1085.671875 700.613281 1094.113281 697.574219 1102.46875 690.9375 C 1103.636719 690.007812 1104.9375 689.25 1105.355469 689.25 C 1106.660156 689.25 1114.40625 680.875 1117.839844 675.75 C 1119.636719 673.070312 1123.324219 667.332031 1126.03125 663 C 1128.742188 658.667969 1131.261719 654.765625 1131.628906 654.328125 C 1131.996094 653.890625 1132.738281 652.707031 1133.273438 651.703125 C 1134.222656 649.925781 1136.546875 646.324219 1150.902344 624.375 C 1154.679688 618.601562 1159.800781 610.667969 1162.28125 606.75 C 1168.234375 597.355469 1178.695312 581.222656 1193.164062 559.125 C 1199.648438 549.226562 1206.695312 538.425781 1208.824219 535.125 C 1220.265625 517.375 1231.535156 500.015625 1264.371094 449.558594 C 1287.027344 414.742188 1287.644531 413.703125 1290.082031 406.332031 C 1294.214844 393.828125 1293.683594 377.539062 1288.785156 366.75 C 1282.28125 352.414062 1270.851562 341.089844 1257.847656 336.089844 C 1249.953125 333.054688 1240.847656 331.535156 1233.75 332.070312 M 720.289062 333.730469 C 704.378906 337.902344 691.871094 348.355469 683.984375 364.078125 C 679.039062 373.9375 677.738281 380.117188 678.21875 391.5 C 678.816406 405.730469 680.320312 409.222656 696.421875 433.875 C 699.386719 438.414062 707.472656 450.898438 714.390625 461.625 C 721.3125 472.351562 732.578125 489.605469 739.425781 499.96875 C 746.273438 510.332031 756.769531 526.324219 762.75 535.507812 C 768.730469 544.695312 775.707031 555.28125 778.25 559.039062 C 780.796875 562.800781 787.023438 572.457031 792.09375 580.5 C 797.160156 588.542969 807.1875 604.070312 814.375 615 C 827.902344 635.574219 833.25 643.800781 839.582031 653.78125 C 849.5625 669.515625 857.546875 681.152344 860.433594 684.171875 C 864.550781 688.472656 874.285156 694.988281 880.5 697.597656 C 887.296875 700.453125 894.292969 701.511719 903.285156 701.046875 C 912.328125 700.582031 919.257812 698.539062 926.25 694.277344 C 937.828125 687.21875 943.488281 680.996094 949.527344 668.671875 C 952.578125 662.453125 953.378906 659.9375 954.085938 654.375 C 955.582031 642.589844 953.769531 630.9375 948.96875 621.449219 C 947.945312 619.429688 944.050781 613.015625 940.3125 607.199219 C 936.363281 601.058594 932.429688 594.90625 928.507812 588.75 C 925.320312 583.746094 922.128906 578.746094 918.925781 573.75 C 915.929688 569.078125 912.949219 564.394531 909.988281 559.703125 C 907.054688 555.058594 904.097656 550.425781 901.125 545.804688 C 898.648438 541.972656 894.890625 536.140625 892.769531 532.855469 C 889.164062 527.261719 864.351562 488.628906 853.039062 471 C 847.523438 462.402344 834.390625 441.617188 823.664062 424.5 C 815.992188 412.261719 809.773438 402.453125 805.117188 395.25 C 803.382812 392.570312 798.996094 385.480469 795.363281 379.5 C 778.515625 351.753906 771.832031 344.167969 758.242188 337.378906 C 748 332.261719 731.828125 330.707031 720.289062 333.730469 M 418.785156 432.734375 C 400.921875 437.414062 387.5625 450.648438 381.632812 469.523438 L 379.875 475.125 L 379.875 1061.625 L 381.636719 1067.25 C 386.019531 1081.246094 395.535156 1092.519531 408.851562 1099.488281 C 417.074219 1103.792969 422.441406 1105.019531 433.125 1105.042969 C 443.324219 1105.066406 448.6875 1103.78125 458.34375 1099.007812 C 466.636719 1094.90625 476.324219 1084.933594 480.910156 1075.769531 C 483.113281 1071.367188 484.640625 1067.09375 485.1875 1063.777344 C 485.820312 1059.96875 485.988281 982.222656 485.835938 765.75 C 485.632812 482.359375 485.578125 472.742188 484.226562 468.75 C 481.984375 462.125 478.082031 454.972656 474.09375 450.183594 C 467.15625 441.847656 455.894531 434.871094 445.375 432.390625 C 438.640625 430.804688 425.496094 430.972656 418.785156 432.734375 M 260.957031 567.738281 C 254.78125 568.503906 246.386719 571.394531 240.921875 574.632812 C 235.527344 577.835938 226.085938 587.277344 222.882812 592.671875 C 219.945312 597.632812 217.101562 605.679688 215.992188 612.203125 C 215.445312 615.421875 215.265625 664.941406 215.410156 771.375 L 215.625 925.875 L 217.664062 931.875 C 223.632812 949.445312 237.214844 962.824219 253.808594 967.480469 C 279.554688 974.707031 305.078125 963.90625 316.6875 940.875 C 317.730469 938.8125 319.378906 934.761719 320.351562 931.875 L 322.125 926.625 L 322.332031 774.375 C 322.449219 685.339844 322.25 619.011719 321.84375 614.625 C 320.695312 602.203125 316.605469 592.808594 308.65625 584.347656 C 304.625 580.054688 297.796875 574.898438 292.875 572.425781 C 285.085938 568.519531 271.136719 566.46875 260.957031 567.738281 M 591 567.714844 C 577.859375 569.105469 569.152344 572.90625 560.097656 581.210938 C 553.472656 587.285156 548.609375 594.734375 545.710938 603.25 L 543.375 610.125 L 543.375 925.875 L 544.972656 931.160156 C 548.972656 944.398438 557.789062 955.777344 569.554688 962.894531 C 578.972656 968.59375 594.875 971.078125 606.648438 968.691406 C 618.808594 966.226562 626.164062 962.292969 634.277344 953.925781 C 640.070312 947.949219 643.058594 943.820312 645.816406 937.988281 C 650.578125 927.917969 650.316406 938.457031 650.085938 766.125 C 649.882812 615.988281 649.816406 609.199219 648.488281 605.25 C 643.726562 591.074219 633.484375 578.949219 620.867188 572.558594 C 613.105469 568.625 600.980469 566.65625 591 567.714844 M 889.578125 835.925781 C 882.808594 837.160156 871.914062 842.484375 865.636719 847.625 C 859.453125 852.691406 856.015625 857.269531 842.554688 878.398438 C 840.53125 881.574219 838.351562 885.117188 837.714844 886.273438 C 837.074219 887.429688 834.242188 891.917969 831.421875 896.25 C 828.574219 900.621094 825.734375 904.996094 822.894531 909.375 C 815.5 920.800781 797.21875 948.914062 782.65625 971.25 C 771.640625 988.148438 763.105469 1001.183594 744.597656 1029.375 C 735.929688 1042.574219 725.246094 1058.863281 720.855469 1065.574219 C 713.664062 1076.542969 706.453125 1087.5 699.226562 1098.441406 C 691.71875 1109.8125 684.886719 1120.546875 684.039062 1122.296875 C 680.914062 1128.75 679.285156 1136.84375 679.269531 1146 C 679.25 1156.636719 680.515625 1161.957031 685.308594 1171.398438 C 691.566406 1183.726562 700.117188 1192.386719 711.882812 1198.3125 C 720.175781 1202.488281 725.457031 1203.832031 735.433594 1204.292969 C 746.335938 1204.800781 752.335938 1203.457031 763.222656 1198.089844 C 770.574219 1194.460938 772.277344 1193.234375 777.5 1187.796875 C 780.757812 1184.398438 784.570312 1179.597656 785.964844 1177.121094 C 787.359375 1174.648438 789.75 1170.769531 791.273438 1168.5 C 792.800781 1166.230469 796.007812 1161.167969 798.410156 1157.25 C 800.808594 1153.332031 803.84375 1148.4375 805.152344 1146.375 C 808.183594 1141.609375 819.691406 1123.046875 825.386719 1113.75 C 827.785156 1109.832031 833.183594 1101.226562 837.386719 1094.625 C 841.585938 1088.023438 846.617188 1079.925781 848.5625 1076.625 C 850.511719 1073.324219 855.878906 1064.683594 860.492188 1057.417969 C 865.679688 1049.238281 870.851562 1041.042969 876 1032.832031 C 879.917969 1026.574219 885.148438 1018.273438 887.625 1014.382812 C 890.101562 1010.496094 896.609375 1000.128906 902.085938 991.347656 C 912.0625 975.355469 919.359375 963.789062 926.125 953.25 C 937.847656 934.984375 947.792969 918.539062 949.992188 913.769531 C 953.769531 905.605469 955.035156 898.378906 954.511719 888 C 954.015625 878.222656 953.398438 875.621094 949.730469 867.878906 C 945.472656 858.886719 939.320312 850.789062 933.949219 847.101562 C 923.242188 839.75 916.726562 836.878906 907.730469 835.546875 C 900.976562 834.546875 896.628906 834.636719 889.578125 835.925781 M 1060.875 835.898438 C 1052.710938 837.554688 1040.199219 844.117188 1034.207031 849.890625 C 1028.480469 855.402344 1025.78125 859.171875 1021.578125 867.507812 C 1017.609375 875.371094 1016.273438 881.296875 1016.261719 891.066406 C 1016.242188 903.589844 1019.023438 912.167969 1027.414062 925.5 C 1029.101562 928.179688 1031.167969 931.554688 1032.007812 933 C 1032.847656 934.445312 1036.054688 939.507812 1039.136719 944.25 C 1044.945312 953.191406 1050.03125 961.21875 1052.625 965.527344 C 1053.449219 966.898438 1054.664062 968.832031 1055.324219 969.824219 C 1055.984375 970.8125 1058.820312 975.507812 1061.625 980.25 C 1064.429688 984.992188 1067.984375 990.730469 1069.523438 993 C 1073.875 999.417969 1078.375 1006.570312 1086.515625 1020 C 1093.839844 1032.082031 1102.503906 1045.730469 1103.984375 1047.515625 C 1104.390625 1048.003906 1106.460938 1051.378906 1108.585938 1055.015625 C 1110.710938 1058.652344 1113.289062 1062.753906 1114.316406 1064.132812 C 1115.34375 1065.511719 1118.925781 1071.125 1122.277344 1076.609375 C 1131.742188 1092.085938 1147.277344 1117.070312 1152.707031 1125.550781 C 1162.070312 1140.171875 1169.777344 1152.429688 1177.117188 1164.375 C 1187.164062 1180.722656 1187.304688 1180.921875 1192.738281 1186.875 C 1196.476562 1190.96875 1199.332031 1193.144531 1205.703125 1196.765625 C 1216.898438 1203.121094 1220.425781 1204.050781 1233.375 1204.0625 C 1245.277344 1204.074219 1249.632812 1203.160156 1258.125 1198.867188 C 1269.714844 1193.011719 1278.027344 1185.046875 1284.578125 1173.515625 C 1288.542969 1166.535156 1290.597656 1158.71875 1291.191406 1148.347656 C 1292 1134.277344 1288.789062 1124.183594 1278.761719 1109.25 C 1276.40625 1105.742188 1273.839844 1101.828125 1273.050781 1100.542969 C 1272.265625 1099.261719 1266.5625 1090.640625 1260.375 1081.382812 C 1254.1875 1072.125 1247.292969 1061.699219 1245.050781 1058.214844 C 1239.535156 1049.621094 1229.542969 1034.386719 1215.574219 1013.25 C 1209.164062 1003.554688 1203.203125 994.339844 1202.324219 992.765625 C 1201.445312 991.195312 1200.378906 989.507812 1199.960938 989.015625 C 1199.539062 988.527344 1194.867188 981.375 1189.574219 973.125 C 1184.285156 964.875 1178.089844 955.257812 1175.808594 951.75 C 1173.53125 948.242188 1168.507812 940.492188 1164.644531 934.523438 C 1160.070312 927.457031 1155.480469 920.402344 1150.875 913.359375 C 1147.160156 907.6875 1142.097656 899.824219 1139.625 895.890625 C 1137.148438 891.957031 1131.640625 883.425781 1127.378906 876.929688 C 1123.121094 870.4375 1119.007812 863.917969 1118.242188 862.441406 C 1115.710938 857.5625 1107.875 848.734375 1103.464844 845.792969 C 1097.882812 842.070312 1091.84375 838.984375 1086.410156 837.074219 C 1080.609375 835.035156 1067.988281 834.453125 1060.875 835.898438 M 711 1195.792969 C 711 1195.957031 711.523438 1196.289062 712.164062 1196.535156 C 712.832031 1196.792969 713.132812 1196.667969 712.871094 1196.242188 C 712.429688 1195.527344 711 1195.1875 711 1195.792969 " fill-opacity="1" fill-rule="evenodd"/></svg>